<?xml version="1.0" standalone="no"?>
<!DOCTYPE svg PUBLIC "-//W3C//DTD SVG 20010904//EN"
 "http://www.w3.org/TR/2001/REC-SVG-20010904/DTD/svg10.dtd">
<svg version="1.0" xmlns="http://www.w3.org/2000/svg"
 width="1280.000000pt" height="1036.000000pt" viewBox="0 0 1280.000000 1036.000000"
 preserveAspectRatio="xMidYMid meet">
<g transform="translate(0.000000,1036.000000) scale(0.100000,-0.100000)"
fill="#00bcd4" stroke="none">
<path d="M7960 10348 c-41 -4 -138 -15 -215 -24 -575 -63 -1145 -281 -1615
-617 -223 -160 -484 -409 -650 -619 -46 -60 -89 -108 -95 -108 -6 0 -35 7 -64
16 -223 66 -511 75 -763 24 -335 -68 -651 -248 -908 -516 -154 -161 -260 -314
-370 -533 -33 -66 -63 -121 -67 -124 -4 -2 -70 8 -147 24 -259 52 -368 63
-656 63 -284 -1 -415 -12 -650 -60 -865 -174 -1513 -673 -1699 -1309 -26 -90
-61 -301 -61 -370 0 -29 4 -75 10 -102 5 -26 16 -88 25 -136 85 -465 443 -892
974 -1161 191 -97 399 -175 598 -226 23 -6 46 -16 50 -23 4 -6 15 -48 24 -92
82 -403 501 -748 1227 -1011 1321 -479 3534 -637 5437 -389 371 48 756 119
1066 196 984 242 1597 583 1811 1007 41 83 45 87 78 89 249 18 447 64 640 148
322 139 593 395 731 690 58 123 85 217 110 382 l22 141 -22 138 c-36 222 -90
367 -194 527 -217 332 -570 561 -1007 649 l-115 24 2 29 c20 335 13 514 -33
765 -241 1321 -1425 2342 -2889 2490 -60 6 -149 15 -196 20 -101 12 -284 11
-389 -2z"/>
<path d="M5960 2438 c-139 -148 -297 -267 -467 -352 -278 -139 -398 -131 -950
64 -262 93 -551 179 -703 209 -173 34 -284 44 -510 45 -180 1 -226 -2 -285
-18 -82 -21 -208 -78 -286 -128 -118 -76 -323 -257 -469 -414 -252 -272 -267
-289 -273 -326 -7 -48 8 -105 33 -118 52 -28 106 -5 265 112 61 44 132 91 160
105 82 42 306 111 468 145 131 27 173 31 307 32 182 1 160 6 590 -136 519
-170 666 -205 957 -229 258 -22 493 13 678 100 209 98 331 224 597 616 121
178 141 248 92 322 -15 24 -84 64 -106 62 -7 -1 -51 -42 -98 -91z"/>
<path d="M10150 2292 c-148 -153 -303 -268 -471 -349 -273 -133 -389 -124
-938 68 -402 141 -653 209 -881 240 -53 7 -199 13 -330 13 -266 1 -295 -4
-455 -79 -160 -75 -379 -253 -589 -479 -61 -66 -147 -158 -191 -204 l-80 -83
0 -65 c0 -57 3 -68 24 -85 49 -40 107 -18 270 103 124 93 192 127 343 176 302
98 601 136 778 98 36 -8 225 -66 420 -130 425 -138 495 -158 670 -190 373 -69
675 -52 926 51 154 64 308 194 440 373 125 169 237 334 266 390 31 62 37 134
14 178 -14 27 -82 72 -107 72 -8 -1 -57 -45 -109 -98z"/>
<path d="M7800 1142 c0 -12 -196 -204 -255 -250 -145 -113 -313 -208 -450
-254 -57 -19 -90 -23 -180 -22 -141 1 -262 31 -596 149 -287 101 -562 184
-709 214 -174 34 -284 44 -515 45 -185 1 -231 -2 -290 -18 -140 -37 -278 -113
-435 -240 -88 -71 -343 -323 -488 -484 l-102 -112 0 -54 c0 -44 5 -60 26 -85
14 -17 34 -31 45 -31 25 0 99 42 184 103 190 139 246 166 474 232 204 58 337
79 511 80 180 0 154 6 660 -160 447 -147 602 -183 887 -206 324 -26 614 39
816 185 78 55 207 188 278 286 103 140 216 306 248 362 42 75 51 150 22 195
-28 44 -131 95 -131 65z"/>
</g>
</svg>
